HIERARCHY
ROOT pelvis
{
	OFFSET 0.000000 0.857207 -0.000000
	CHANNELS 6 Xposition Yposition Zposition Xrotation Yrotation Zrotation
	JOINT spine
	{
		OFFSET 0.000000 0.000000 0.000000
		CHANNELS 6 Xposition Yposition Zposition Xrotation Yrotation Zrotation
		JOINT spine.001
		{
			OFFSET 0.000000 0.260059 0.013629
			CHANNELS 3 Xrotation Yrotation Zrotation
			JOINT neck
			{
				OFFSET 0.000000 0.258474 -0.031737
				CHANNELS 6 Xposition Yposition Zposition Xrotation Yrotation Zrotation
				JOINT face
				{
					OFFSET 0.000000 0.214105 -0.003737
					CHANNELS 6 Xposition Yposition Zposition Xrotation Yrotation Zrotation
					End Site
					{
						OFFSET 0.000000 -0.008354 0.030907
					}
				}
			}
			JOINT shoulder.L
			{
				OFFSET 0.000000 0.258474 -0.031737
				CHANNELS 6 Xposition Yposition Zposition Yrotation Xrotation Zrotation
				JOINT upper_arm.L
				{
					OFFSET 0.166496 0.000000 0.000000
					CHANNELS 6 Xposition Yposition Zposition Xrotation Yrotation Zrotation
					JOINT forearm.L
					{
						OFFSET 0.284837 0.001031 -0.000124
						CHANNELS 6 Xposition Yposition Zposition Xrotation Yrotation Zrotation
						End Site
						{
							OFFSET 0.239246 -0.001418 0.004062
						}
					}
				}
			}
			JOINT shoulder.R
			{
				OFFSET 0.000000 0.258474 -0.031737
				CHANNELS 6 Xposition Yposition Zposition Yrotation Xrotation Zrotation
				JOINT upper_arm.R
				{
					OFFSET -0.166496 0.000000 0.000000
					CHANNELS 6 Xposition Yposition Zposition Xrotation Yrotation Zrotation
					JOINT forearm.R
					{
						OFFSET -0.289323 0.001031 -0.000124
						CHANNELS 6 Xposition Yposition Zposition Xrotation Yrotation Zrotation
						End Site
						{
							OFFSET -0.237959 -0.001418 0.004040
						}
					}
				}
			}
		}
	}
	JOINT pelvis.L
	{
		OFFSET 0.000000 0.000000 0.000000
		CHANNELS 6 Xposition Yposition Zposition Yrotation Xrotation Zrotation
		End Site
		{
			OFFSET 0.104056 0.000000 0.000000
		}
	}
	JOINT pelvis.R
	{
		OFFSET 0.000000 0.000000 0.000000
		CHANNELS 6 Xposition Yposition Zposition Yrotation Xrotation Zrotation
		End Site
		{
			OFFSET -0.104056 0.000000 0.000000
		}
	}
	JOINT thigh.L
	{
		OFFSET 0.104056 0.000000 0.000000
		CHANNELS 6 Xposition Yposition Zposition Xrotation Yrotation Zrotation
		JOINT shin.L
		{
			OFFSET 0.020751 -0.395956 0.000000
			CHANNELS 6 Xposition Yposition Zposition Xrotation Yrotation Zrotation
			JOINT foot.L
			{
				OFFSET 0.020178 -0.385016 0.000000
				CHANNELS 6 Xposition Yposition Zposition Xrotation Yrotation Zrotation
				End Site
				{
					OFFSET 0.016943 -0.072543 0.172755
				}
			}
		}
	}
	JOINT thigh.R
	{
		OFFSET -0.104056 0.000000 0.000000
		CHANNELS 6 Xposition Yposition Zposition Xrotation Yrotation Zrotation
		JOINT shin.R
		{
			OFFSET -0.021340 -0.407196 0.000000
			CHANNELS 6 Xposition Yposition Zposition Xrotation Yrotation Zrotation
			JOINT foot.R
			{
				OFFSET -0.019847 -0.378703 0.000000
				CHANNELS 6 Xposition Yposition Zposition Xrotation Yrotation Zrotation
				End Site
				{
					OFFSET -0.016568 -0.070938 0.168933
				}
			}
		}
	}
}
MOTION
Frames: 10
Frame Time: 0.041667
0.025983 -0.006700 -0.017312 -0.000000 -0.394004 -0.000000 -0.000000 -0.000000 0.000000 -5.796202 0.120349 -1.164961 10.027171 -5.018942 0.617860 0.000000 0.258475 -0.031737 10.865483 -14.278398 8.209977 0.000000 0.214106 -0.003737 -1.177836 -0.000015 -0.000006 -0.000000 0.258475 -0.031737 0.669326 -0.031912 5.459491 0.166496 0.000000 -0.000000 -7.161092 -7.315238 -88.801810 0.284837 0.001031 -0.000124 -1.434652 -14.898488 -11.752915 -0.000000 0.258475 -0.031737 0.662581 -0.031269 5.404230 -0.166496 0.000000 0.000000 -8.252367 10.637430 75.699724 -0.289323 0.001031 -0.000124 -0.119620 7.894054 1.390792 0.000000 -0.000000 -0.000000 -0.000076 -0.000000 -0.080048 0.000000 0.000000 -0.000000 0.000000 0.000000 -0.080015 0.104055 -0.000145 -0.000000 2.163808 -0.029527 -7.562992 0.020751 -0.395956 0.000000 1.994540 0.258166 8.748131 0.020178 -0.385016 0.000000 -7.058857 -11.196696 -4.887008 -0.104056 0.000145 -0.000000 3.059975 -0.041840 4.433376 -0.021340 -0.407196 0.000000 -0.387522 0.048256 -8.199164 -0.019847 -0.378703 0.000000 -4.440418 3.528878 1.206674 
0.024319 -0.006978 -0.013858 -0.000000 -2.137068 -0.000000 -0.000000 0.000000 0.000000 -6.176503 0.141455 -1.326149 10.014873 -3.726605 0.458203 -0.000000 0.258474 -0.031737 11.306912 -13.710319 8.405279 0.000000 0.214105 -0.003737 -1.228984 -0.000002 -0.000006 -0.000000 0.258475 -0.031737 0.675511 -0.032505 5.509590 0.166496 0.000000 0.000000 -6.405387 -6.578333 -88.452623 0.284837 0.001031 -0.000124 -1.457912 -15.497901 -11.392819 -0.000000 0.258475 -0.031737 0.668771 -0.031857 5.454373 -0.166496 0.000000 0.000000 -8.071443 10.385627 75.795784 -0.289323 0.001031 -0.000124 -0.135390 8.028107 1.640917 0.000000 0.000000 0.000000 -0.000007 -0.000000 -0.179525 0.000000 0.000000 0.000000 0.000000 0.000000 -0.179558 0.104055 -0.000326 -0.000000 2.808027 -0.026600 -7.084878 0.020751 -0.395956 0.000000 1.737599 0.214410 8.066943 0.020178 -0.385016 0.000000 -6.620039 -9.215813 -3.886052 -0.104055 0.000326 0.000000 3.252056 -0.051098 4.199989 -0.021340 -0.407196 0.000000 -1.016074 0.123591 -7.870861 -0.019847 -0.378703 0.000000 -3.797136 4.849545 1.859366 
0.023145 -0.007411 -0.011331 -0.000000 -3.297575 -0.000000 -0.000000 -0.000000 -0.000000 -6.469049 0.155524 -1.423582 10.008510 -2.817434 0.346221 0.000000 0.258474 -0.031737 11.696048 -13.396697 8.512703 0.000000 0.214105 -0.003737 -1.294562 0.000006 0.000000 -0.000000 0.258475 -0.031737 0.677062 -0.032657 5.522695 0.166496 -0.000000 0.000000 -5.782933 -5.970118 -88.111004 0.284837 0.001031 -0.000124 -1.448591 -15.906192 -10.962541 -0.000000 0.258475 -0.031737 0.670307 -0.032006 5.467445 -0.166496 0.000000 -0.000000 -7.882166 10.124548 75.888210 -0.289323 0.001031 -0.000124 -0.155140 8.300612 1.895615 -0.000000 0.000000 0.000000 0.000048 0.000000 -0.322096 -0.000000 0.000000 0.000000 0.000000 0.000000 -0.322129 0.104054 -0.000585 -0.000000 3.195175 -0.022420 -6.803539 0.020751 -0.395956 0.000000 1.728211 0.206732 7.641117 0.020178 -0.385016 0.000000 -6.359804 -7.843070 -3.206156 -0.104054 0.000585 -0.000000 3.472851 -0.059776 4.028265 -0.021340 -0.407196 0.000000 -1.592599 0.189737 -7.587801 -0.019847 -0.378703 0.000000 -3.175994 5.767788 2.310509 
0.022577 -0.007710 -0.009964 -0.000000 -3.771125 -0.000000 -0.000000 0.000000 -0.000000 -6.634528 0.161870 -1.462077 10.006006 -2.379381 0.292309 0.000000 0.258474 -0.031737 11.960614 -13.338851 8.505313 0.000000 0.214106 -0.003737 -1.355144 -0.000004 -0.000006 -0.000000 0.258475 -0.031737 0.667723 -0.031764 5.446633 0.166496 -0.000000 0.000000 -5.333539 -5.539594 -87.729245 0.284837 0.001031 -0.000124 -1.383405 -15.945562 -10.406318 -0.000000 0.258475 -0.031737 0.660977 -0.031121 5.391416 -0.166496 0.000000 0.000000 -7.719549 9.889879 76.029342 -0.289323 0.001031 -0.000124 -0.191633 8.631122 2.390468 0.000000 -0.000000 0.000000 -0.000054 -0.000000 -0.443303 0.000000 0.000000 0.000000 0.000000 0.000000 -0.443303 0.104052 -0.000805 -0.000000 3.260092 -0.019698 -6.691994 0.020751 -0.395956 0.000000 2.031803 0.239633 7.451006 0.020178 -0.385016 0.000000 -6.330952 -7.194408 -2.886103 -0.104053 0.000805 -0.000000 3.702743 -0.066563 3.940969 -0.021340 -0.407196 0.000000 -2.068543 0.242978 -7.398026 -0.019847 -0.378703 0.000000 -2.578389 6.225027 2.541020 
0.022317 -0.007420 -0.009236 -0.000000 -3.934632 -0.000000 -0.000000 -0.000000 0.000000 -6.724197 0.163913 -1.470068 10.005008 -2.154349 0.264662 0.000000 0.258474 -0.031737 12.061424 -13.350671 8.391398 0.000000 0.214105 -0.003737 -1.375499 -0.000002 -0.000001 0.000000 0.258475 -0.031737 0.643900 -0.029529 5.252015 0.166496 -0.000000 -0.000000 -4.938964 -5.170694 -87.237498 0.284837 0.001031 -0.000124 -1.277755 -15.630195 -9.795004 -0.000000 0.258475 -0.031737 0.637181 -0.028916 5.196842 -0.166496 0.000000 0.000000 -7.610887 9.709319 76.263037 -0.289323 0.001031 -0.000124 -0.260554 8.899938 3.401386 -0.000000 0.000000 0.000000 0.000018 0.000000 -0.471759 -0.000000 0.000000 0.000000 0.000000 0.000000 -0.471758 0.104052 -0.000857 -0.000000 3.184262 -0.017509 -6.629637 0.020751 -0.395956 0.000000 2.439651 0.284937 7.320769 0.020178 -0.385016 0.000000 -6.488634 -6.912989 -2.742701 -0.104052 0.000857 -0.000000 3.897442 -0.070811 3.919030 -0.021340 -0.407196 0.000000 -2.428052 0.283324 -7.309731 -0.019847 -0.378703 0.000000 -1.993416 6.496087 2.682394 
0.021956 -0.006491 -0.008434 -0.000000 -4.094092 -0.000000 -0.000000 0.000000 -0.000000 -6.817807 0.166385 -1.481243 10.004039 -1.927385 0.236758 0.000000 0.258475 -0.031737 12.043202 -13.260925 8.181363 0.000000 0.214105 -0.003737 -1.345119 -0.000002 0.000007 -0.000000 0.258475 -0.031737 0.610387 -0.026529 4.977338 0.166496 -0.000000 0.000000 -4.444723 -4.698857 -86.625971 0.284837 0.001031 -0.000124 -1.182837 -15.229647 -9.308565 -0.000000 0.258475 -0.031737 0.603604 -0.025944 4.922085 -0.166496 -0.000000 -0.000000 -7.534185 9.560213 76.557938 -0.289323 0.001031 -0.000124 -0.364760 9.182864 4.881399 -0.000000 0.000000 0.000000 0.000041 0.000000 -0.453773 0.000000 0.000000 0.000000 0.000000 0.000000 -0.453740 0.104052 -0.000824 -0.000000 3.203994 -0.014743 -6.527012 0.020751 -0.395956 0.000000 2.648179 0.304980 7.136441 0.020178 -0.385016 0.000000 -6.742798 -6.710482 -2.634641 -0.104052 0.000824 -0.000000 4.034107 -0.072151 3.951383 -0.021340 -0.407196 0.000000 -2.648544 0.309381 -7.323455 -0.019847 -0.378703 0.000000 -1.470714 6.779741 2.824163 
0.021334 -0.005321 -0.007227 -0.000000 -4.240489 -0.000000 -0.000000 0.000000 0.000000 -6.946912 0.171307 -1.509703 10.003083 -1.699930 0.208775 0.000000 0.258474 -0.031737 11.987277 -12.997747 7.898597 -0.000000 0.214105 -0.003737 -1.299441 0.000005 0.000007 -0.000000 0.258475 -0.031737 0.575682 -0.023590 4.693146 0.166496 0.000000 -0.000000 -3.875796 -4.136701 -85.999451 0.284837 0.001031 -0.000124 -1.134941 -15.034850 -9.045818 -0.000000 0.258475 -0.031737 0.568921 -0.023039 4.637940 -0.166496 0.000000 -0.000000 -7.465919 9.422668 76.856287 -0.289323 0.001031 -0.000124 -0.487984 9.575823 6.430986 0.000000 -0.000000 0.000000 -0.000029 -0.000000 -0.477404 0.000000 0.000000 0.000000 -0.000001 -0.000000 -0.477436 0.104052 -0.000867 -0.000000 3.415929 -0.011700 -6.392238 0.020751 -0.395956 0.000000 2.506807 0.284363 6.941164 0.020178 -0.385016 0.000000 -6.973785 -6.571106 -2.557803 -0.104052 0.000867 -0.000000 4.070537 -0.069529 4.043577 -0.021340 -0.407196 0.000000 -2.589461 0.305052 -7.435482 -0.019847 -0.378703 0.000000 -1.167510 7.036173 2.945308 
0.020685 -0.004294 -0.005776 -0.000000 -4.271686 -0.000000 -0.000000 -0.000000 0.000000 -7.084558 0.175932 -1.533979 10.002527 -1.534739 0.188492 0.000000 0.258475 -0.031737 11.927280 -12.553593 7.581546 -0.000000 0.214105 -0.003737 -1.304572 -0.000014 0.000004 -0.000000 0.258475 -0.031737 0.544237 -0.021081 4.436600 0.166496 -0.000000 0.000000 -3.415565 -3.670763 -85.515273 0.284837 0.001031 -0.000124 -1.124953 -15.094547 -8.915564 -0.000000 0.258475 -0.031737 0.537453 -0.020558 4.381435 -0.166496 -0.000000 -0.000000 -7.432560 9.333266 77.137260 -0.289323 0.001031 -0.000124 -0.595144 9.932385 7.636243 -0.000000 0.000000 0.000000 0.000032 0.000000 -0.533922 0.000000 0.000000 0.000000 0.000000 0.000000 -0.533889 0.104051 -0.000970 -0.000000 3.758113 -0.009731 -6.296453 0.020751 -0.395956 0.000000 2.092293 0.235432 6.838333 0.020178 -0.385016 0.000000 -7.073662 -6.540270 -2.539116 -0.104051 0.000970 -0.000000 3.935105 -0.062383 4.184119 -0.021340 -0.407196 0.000000 -2.075702 0.247818 -7.615861 -0.019847 -0.378703 0.000000 -1.236624 7.169254 3.001962 
0.020351 -0.003471 -0.004451 -0.000000 -4.186413 -0.000000 -0.000000 -0.000000 0.000000 -7.195534 0.176127 -1.522655 10.002158 -1.428120 0.175385 0.000000 0.258475 -0.031737 11.841204 -11.956384 7.248975 -0.000000 0.214105 -0.003737 -1.394168 -0.000002 0.000004 -0.000000 0.258475 -0.031737 0.515774 -0.018928 4.204478 0.166496 0.000000 0.000000 -3.185021 -3.436362 -85.244231 0.284837 0.001031 -0.000124 -1.117032 -15.215105 -8.760376 -0.000000 0.258475 -0.031737 0.508985 -0.018434 4.149218 -0.166496 -0.000000 0.000000 -7.469511 9.338725 77.381795 -0.289323 0.001031 -0.000124 -0.655227 10.019416 8.390298 -0.000000 0.000000 0.000000 0.000064 0.000001 -0.550333 -0.000000 0.000000 0.000000 0.000000 0.000000 -0.550300 0.104051 -0.000999 0.000000 4.135119 -0.010333 -6.286057 0.020751 -0.395956 0.000000 1.551172 0.174815 6.858337 0.020178 -0.385016 0.000000 -7.005536 -6.587395 -2.564929 -0.104051 0.000999 -0.000000 3.628304 -0.052332 4.347698 -0.021340 -0.407196 0.000000 -1.168677 0.141778 -7.834430 -0.019847 -0.378703 0.000000 -1.635092 7.164843 2.990172 
0.020365 -0.002739 -0.003516 -0.000000 -4.027645 -0.000000 -0.000000 -0.000000 0.000000 -7.274962 0.171976 -1.477818 10.001899 -1.347251 0.165450 0.000000 0.258474 -0.031737 11.709992 -11.262139 6.895622 0.000000 0.214105 -0.003737 -1.516275 -0.000003 0.000001 -0.000000 0.258475 -0.031737 0.489660 -0.017060 3.991153 0.166496 0.000000 -0.000000 -3.161442 -3.418266 -85.115680 0.284837 0.001031 -0.000124 -1.089383 -15.176948 -8.552048 -0.000000 0.258475 -0.031737 0.482866 -0.016590 3.935899 -0.166496 0.000000 0.000000 -7.551594 9.416451 77.531287 -0.289323 0.001031 -0.000124 -0.679437 9.877775 8.898346 -0.000000 0.000000 -0.000000 0.000040 0.000000 -0.519382 0.000000 0.000000 -0.000000 0.000000 0.000000 -0.519349 0.104051 -0.000943 -0.000000 4.519592 -0.012931 -6.327478 0.020751 -0.395956 0.000000 0.924772 0.104782 6.927223 0.020178 -0.385016 0.000000 -6.801017 -6.676505 -2.615914 -0.104051 0.000943 -0.000000 3.279660 -0.042169 4.526936 -0.021340 -0.407196 0.000000 -0.215817 0.026667 -8.090963 -0.019847 -0.378703 0.000000 -2.112735 7.035085 2.920105 
